<svg xmlns="http://www.w3.org/2000/svg" viewBox="0 0 512 512" width="512" height="512" role="img" aria-label="V2G — Vehicle to Grid">
  <defs>
    <linearGradient id="bg" x1="0" y1="0" x2="0" y2="1">
      <stop offset="0" stop-color="#10161F"/>
      <stop offset="1" stop-color="#060A0F"/>
    </linearGradient>
    <linearGradient id="sheen" x1="0" y1="0" x2="0" y2="1">
      <stop offset="0" stop-color="#ffffff" stop-opacity="0.08"/>
      <stop offset="0.5" stop-color="#ffffff" stop-opacity="0"/>
    </linearGradient>
    <linearGradient id="vGrad" x1="0" y1="0" x2="1" y2="1">
      <stop offset="0" stop-color="#3CE68E"/>
      <stop offset="0.55" stop-color="#1FCFC9"/>
      <stop offset="1" stop-color="#12B2EA"/>
    </linearGradient>
  </defs>
  <rect x="0" y="0" width="512" height="512" rx="116" fill="url(#bg)"/>
  <rect x="0" y="0" width="512" height="512" rx="116" fill="url(#sheen)"/>
  <rect x="1.5" y="1.5" width="509" height="509" rx="114.5" fill="none" stroke="#233242" stroke-opacity="0.7" stroke-width="2"/>
  <path transform="translate(70.000 289.900) scale(0.183246)" d="M 720.94 -702.03 L 472.03 -0.00 L 257.97 -0.00 L 9.06 -702.03 L 190.94 -702.03 L 365.00 -172.03 L 540.00 -702.03 L 720.94 -702.03 Z M 769.06 -137.03 Q 802.97 -164.06 800.00 -162.03 Q 897.97 -242.97 954.37 -295.00 Q 1010.94 -347.03 1050.00 -403.91 Q 1089.06 -460.94 1089.06 -515.00 Q 1089.06 -555.94 1070.00 -578.91 Q 1050.94 -602.03 1012.97 -602.03 Q 975.00 -602.03 953.44 -573.44 Q 932.03 -545.00 932.03 -492.97 L 767.03 -492.97 Q 769.06 -577.97 803.44 -635.00 Q 837.97 -692.03 894.37 -718.91 Q 950.94 -745.94 1020.00 -745.94 Q 1139.06 -745.94 1199.53 -685.00 Q 1260.00 -624.06 1260.00 -525.94 Q 1260.00 -419.06 1187.03 -327.50 Q 1114.06 -235.94 1000.94 -149.06 L 1270.94 -149.06 L 1270.94 -10.00 L 769.06 -10.00 L 769.06 -137.03 Z M 1828.97 -480.00 Q 1810.06 -515.00 1774.44 -533.44 Q 1738.97 -552.03 1691.00 -552.03 Q 1608.03 -552.03 1558.03 -497.50 Q 1508.03 -442.97 1508.03 -352.03 Q 1508.03 -255.00 1560.53 -200.47 Q 1613.03 -145.94 1705.06 -145.94 Q 1768.03 -145.94 1811.47 -177.97 Q 1855.06 -210.00 1875.06 -270.00 L 1658.03 -270.00 L 1658.03 -395.94 L 2030.06 -395.94 L 2030.06 -237.03 Q 2011.00 -172.97 1965.53 -117.97 Q 1920.06 -62.97 1850.06 -28.91 Q 1780.06 5.00 1691.94 5.00 Q 1588.03 5.00 1506.47 -40.47 Q 1425.06 -85.94 1379.44 -166.88 Q 1333.97 -247.97 1333.97 -352.03 Q 1333.97 -455.94 1379.44 -537.50 Q 1425.06 -619.06 1506.00 -664.53 Q 1586.94 -710.00 1691.00 -710.00 Q 1816.94 -710.00 1903.50 -648.91 Q 1990.06 -587.97 2018.03 -480.00 L 1828.97 -480.00 Z" fill="url(#vGrad)"/>

  <g fill="none" stroke-width="12" stroke-linecap="round" stroke-linejoin="round">
    <g stroke="#3CE68E">
      <path d="M206 350 L306 350"/><path d="M306 350 L291 341"/><path d="M306 350 L291 359"/>
    </g>
    <g stroke="#12B2EA">
      <path d="M306 376 L206 376"/><path d="M206 376 L221 367"/><path d="M206 376 L221 385"/>
    </g>
  </g>
</svg>
